<?xml version="1.0" ?><svg viewBox="0 0 32 32" xmlns="http://www.w3.org/2000/svg"><title/><g id="Location">
<path fill="green" d="M26.49,30H5.5A3.35,3.35,0,0,1,3,29a3.35,3.35,0,0,1-1-2.48V5.5A3.35,3.35,0,0,1,3,3,3.35,3.35,0,0,1,5.5,2h21A3.35,3.35,0,0,1,29,3,3.35,3.35,0,0,1,30,5.5v21A3.52,3.52,0,0,1,26.49,30ZM16,21.47a.46.46,0,0,0,.38-.23h.06q.12-.3,4.26-6.44a5.19,5.19,0,0,0,.67-2.63,5.19,5.19,0,0,0-1.57-3.82A5.12,5.12,0,0,0,16,6.76a5.18,5.18,0,0,0-3.83,1.58,5.17,5.17,0,0,0-1.59,3.82A5.11,5.11,0,0,0,11.41,15c.55.85,1.13,1.69,1.72,2.54l2.43,3.67A.51.51,0,0,0,16,21.47Zm0,3.83a5.25,5.25,0,0,0,1.64-.22c.46-.15.69-.32.69-.52s-.23-.39-.69-.54A5.25,5.25,0,0,0,16,23.8a5.29,5.29,0,0,0-1.64.22q-.69.23-.69.54c0,.2.23.37.69.52A5.29,5.29,0,0,0,16,25.3Zm.1-10.4a2.24,2.24,0,0,1-1.53-.56,2.15,2.15,0,0,1-.18-3,2,2,0,0,1,1.55-.76,2.16,2.16,0,0,1,1.5.56,2,2,0,0,1,.72,1.56,2.19,2.19,0,0,1-.55,1.5A2.11,2.11,0,0,1,16.07,14.9Z"/></g></svg>